<?xml version="1.0" encoding="iso-8859-1"?>
<!-- Generator: Adobe Illustrator 21.1.0, SVG Export Plug-In . SVG Version: 6.00 Build 0)  -->
<svg version="1.1" id="&#x421;&#x43B;&#x43E;&#x439;_1"
	 xmlns="http://www.w3.org/2000/svg" xmlns:xlink="http://www.w3.org/1999/xlink" x="0px" y="0px" viewBox="0 0 237.044 37.154"
	 style="enable-background:new 0 0 237.044 37.154;" xml:space="preserve">
<g>
	<path style="fill:#302E2C;" d="M59.024,28.261c-0.16-0.037-0.278-0.098-0.354-0.186c-0.079-0.087-0.115-0.216-0.115-0.388
		c0-0.18,0.045-0.45,0.138-0.807l2.232-8.365c0.11-0.424,0.222-0.731,0.337-0.922c0.115-0.194,0.275-0.326,0.478-0.396
		c0.205-0.07,0.512-0.115,0.922-0.132l0.084-0.337c-0.661,0.034-1.549,0.051-2.667,0.051c-0.2,0-0.579-0.008-1.141-0.025
		c-0.562-0.017-1.082-0.025-1.56-0.025c-0.287,0-0.554,0.008-0.801,0.025c-0.247,0.017-0.41,0.025-0.492,0.025
		c-0.691,0-1.217-0.017-1.574-0.051l-0.081,0.337c0.289,0.011,0.514,0.034,0.675,0.07c0.16,0.036,0.278,0.098,0.354,0.185
		c0.076,0.087,0.115,0.216,0.115,0.388c0,0.191-0.051,0.461-0.149,0.807c-0.658,2.443-1.346,4.466-2.066,6.068
		c-0.72,1.602-1.408,2.701-2.066,3.294c-0.337,0.301-0.722,0.453-1.164,0.453h-1.11c-0.123,0.619-0.347,1.427-0.667,2.419
		c-0.022,0.052-0.158,0.423-0.412,1.123h0.371c0.357-0.852,0.731-1.509,1.124-1.97c0.394-0.461,0.838-0.781,1.338-0.961
		c0.5-0.183,1.122-0.273,1.869-0.273h1.012c0.638,0,1.206-0.006,1.701-0.017c0.498-0.011,0.863-0.017,1.099-0.017
		c0.579,0,1.048,0.076,1.408,0.228c0.363,0.152,0.635,0.396,0.812,0.736c0.177,0.34,0.267,0.798,0.267,1.374
		c0,0.292-0.02,0.59-0.056,0.899h0.371c0.031-0.166,0.065-0.332,0.098-0.5c0.031-0.166,0.07-0.349,0.115-0.545
		c0.273-1.06,0.523-1.892,0.748-2.496H59.69C59.403,28.32,59.181,28.298,59.024,28.261z M58.24,18.516l-2.223,8.365
		c-0.11,0.424-0.222,0.734-0.34,0.93c-0.118,0.2-0.275,0.334-0.469,0.408c-0.197,0.076-0.483,0.112-0.863,0.112h-3.103
		c0.11-0.073,0.216-0.157,0.32-0.256c0.787-0.703,1.537-1.928,2.257-3.676c0.72-1.748,1.366-3.71,1.942-5.883
		c0.11-0.408,0.222-0.711,0.337-0.916c0.115-0.202,0.259-0.343,0.424-0.419c0.169-0.076,0.399-0.115,0.689-0.115h0.239
		c0.318,0,0.551,0.048,0.7,0.143c0.149,0.096,0.222,0.273,0.222,0.531C58.372,17.946,58.327,18.201,58.24,18.516z"/>
	<path style="fill:#302E2C;" d="M68.269,20.059c-0.323-0.228-0.748-0.343-1.268-0.343c-1.11,0-2.131,0.354-3.064,1.06
		s-1.67,1.591-2.212,2.656c-0.54,1.065-0.81,2.097-0.81,3.095c0,0.506,0.112,0.939,0.34,1.299c0.228,0.36,0.542,0.63,0.944,0.81
		c0.399,0.183,0.854,0.273,1.366,0.273c0.571,0,1.107-0.107,1.611-0.318c0.5-0.211,0.947-0.489,1.332-0.832
		c0.388-0.343,0.711-0.714,0.97-1.116l-0.273-0.132c-0.408,0.478-0.832,0.829-1.273,1.051c-0.441,0.222-0.838,0.334-1.189,0.334
		c-0.422,0-0.745-0.126-0.967-0.377c-0.222-0.25-0.334-0.669-0.334-1.262c0-0.363,0.034-0.748,0.098-1.155
		c0.857-0.225,1.678-0.528,2.468-0.908c0.787-0.382,1.442-0.843,1.962-1.38c0.523-0.537,0.784-1.127,0.784-1.771
		C68.755,20.616,68.592,20.287,68.269,20.059z M66.515,22.271c-0.259,0.52-0.613,0.984-1.063,1.391
		c-0.45,0.405-1.068,0.781-1.852,1.127c0.157-0.779,0.413-1.537,0.764-2.271c0.351-0.736,0.734-1.335,1.144-1.796
		c0.413-0.461,0.787-0.691,1.121-0.691c0.093,0,0.16,0.039,0.205,0.124c0.045,0.081,0.065,0.228,0.065,0.436
		C66.9,21.189,66.774,21.749,66.515,22.271z"/>
	<path style="fill:#302E2C;" d="M78.195,19.716c-0.635,0.138-1.45,0.216-2.445,0.231l-1.037,4.019h-2.355l0.486-1.894
		c0.098-0.351,0.149-0.677,0.149-0.978c0-0.919-0.475-1.377-1.425-1.377c-0.517,0-0.958,0.135-1.329,0.405
		c-0.371,0.27-0.666,0.711-0.885,1.327l-0.453,1.285h0.32l0.32-0.857c0.183-0.489,0.357-0.832,0.528-1.034
		c0.169-0.2,0.36-0.301,0.568-0.301c0.191,0,0.287,0.101,0.287,0.306c0,0.093-0.031,0.27-0.098,0.534l-2.058,7.288h2.372
		l1.127-4.365h2.355l-0.576,2.24c-0.115,0.444-0.174,0.807-0.174,1.088c0,0.273,0.053,0.509,0.157,0.7
		c0.098,0.18,0.256,0.323,0.472,0.424c0.219,0.101,0.475,0.152,0.77,0.152c1.11,0,1.864-0.579,2.265-1.737l0.453-1.284h-0.32
		l-0.32,0.863c-0.171,0.483-0.34,0.826-0.512,1.026c-0.171,0.2-0.36,0.301-0.568,0.301c-0.191,0-0.289-0.093-0.289-0.281
		c0-0.115,0.036-0.301,0.107-0.559L78.195,19.716z"/>
	<path style="fill:#302E2C;" d="M91.476,26.749c-0.32,0.885-0.675,1.327-1.063,1.327c-0.214,0-0.323-0.112-0.323-0.337
		c0-0.126,0.037-0.295,0.11-0.503l1.647-4.972c0.152-0.461,0.23-0.871,0.23-1.228c0-0.877-0.461-1.318-1.377-1.318
		c-0.495,0-0.947,0.112-1.358,0.335c-0.413,0.222-0.812,0.599-1.197,1.127c-0.388,0.531-0.773,1.251-1.158,2.161l0.304-1.077
		c0.138-0.495,0.208-0.908,0.208-1.237c0-0.871-0.447-1.31-1.335-1.31c-0.542,0-1.032,0.129-1.462,0.385
		c-0.43,0.253-0.835,0.661-1.211,1.223c-0.374,0.559-0.75,1.304-1.124,2.232l0.388-1.484c0.098-0.357,0.149-0.691,0.149-1.003
		c0-0.899-0.453-1.352-1.36-1.352c-1.102,0-1.864,0.576-2.279,1.731l-0.453,1.285h0.32l0.32-0.857
		c0.177-0.472,0.349-0.812,0.514-1.02c0.169-0.211,0.351-0.315,0.548-0.315c0.205,0,0.306,0.121,0.306,0.363
		c0,0.126-0.028,0.287-0.084,0.478l-2.058,7.288h2.372l0.444-1.729v0.039c0.368-1.234,0.756-2.33,1.169-3.286
		c0.41-0.953,0.821-1.701,1.225-2.235c0.408-0.534,0.779-0.804,1.113-0.804c0.185,0,0.281,0.107,0.281,0.323
		c0,0.141-0.051,0.371-0.149,0.691l-2.06,6.999h2.414l0.436-1.557v0.042c0.438-1.422,0.883-2.62,1.327-3.595s0.86-1.701,1.251-2.181
		c0.391-0.481,0.736-0.722,1.037-0.722c0.155,0,0.23,0.112,0.23,0.34c0,0.169-0.042,0.394-0.132,0.675l-1.515,4.553
		c-0.169,0.526-0.256,0.97-0.256,1.327c0,0.295,0.062,0.545,0.183,0.748c0.253,0.408,0.703,0.61,1.349,0.61
		c1.116,0,1.875-0.579,2.282-1.737l0.419-1.237h-0.32L91.476,26.749z"/>
	<path style="fill:#302E2C;" d="M21.093,19.716c-0.526,0-1.012,0.202-1.456,0.607c-0.447,0.402-0.874,1.04-1.285,1.914l1.456-5.138
		c-0.745,0.247-1.582,0.402-2.51,0.469l-0.067,0.222c-0.323,0.829-0.652,1.532-0.984,2.111s-0.661,1.071-0.984,1.476
		c-0.323,0.402-0.731,0.866-1.22,1.386l0.183,0.222c0.576-0.596,1.071-1.175,1.481-1.731c0.413-0.557,0.776-1.186,1.088-1.883
		L13.74,30.324c-0.076,0.27-0.166,0.478-0.267,0.63c-0.101,0.152-0.233,0.259-0.396,0.32c-0.16,0.065-0.379,0.096-0.655,0.096
		l-0.098,0.354c0.121-0.006,0.43-0.02,0.93-0.042c0.5-0.023,0.981-0.034,1.442-0.031c0.537-0.003,1.079,0.008,1.625,0.031
		c0.548,0.023,0.894,0.037,1.043,0.042l0.098-0.354c-0.478-0.011-0.829-0.076-1.054-0.194c-0.225-0.118-0.337-0.332-0.337-0.638
		c0-0.166,0.034-0.365,0.098-0.602l0.453-1.613c0.166,0.18,0.382,0.323,0.646,0.427c0.267,0.104,0.557,0.157,0.869,0.157
		c1.006,0,1.892-0.354,2.662-1.062c0.767-0.708,1.358-1.577,1.771-2.611c0.41-1.032,0.616-2.007,0.616-2.923
		c0-0.846-0.177-1.49-0.534-1.931C22.293,19.938,21.773,19.716,21.093,19.716z M20.252,24.86c-0.312,1.006-0.719,1.852-1.223,2.533
		c-0.5,0.68-1.018,1.02-1.552,1.02c-0.312,0-0.568-0.129-0.765-0.388l1.127-3.986c0.231-0.652,0.483-1.237,0.759-1.757
		c0.273-0.52,0.545-0.927,0.818-1.228c0.273-0.298,0.52-0.447,0.745-0.447c0.183,0,0.32,0.101,0.416,0.309
		c0.096,0.205,0.143,0.568,0.143,1.091C20.722,22.901,20.567,23.854,20.252,24.86z"/>
	<path style="fill:#302E2C;" d="M49.621,27.171l0.427-1.237h-0.32l-0.306,0.815c-0.301,0.885-0.649,1.327-1.046,1.327
		c-0.214,0-0.32-0.126-0.32-0.379c0-0.115,0.028-0.267,0.081-0.461l2.215-7.519c-0.734,0.149-1.549,0.231-2.445,0.247l-0.23,0.832
		c-0.037-0.363-0.149-0.632-0.337-0.81c-0.185-0.18-0.43-0.27-0.734-0.27c-0.784,0-1.588,0.377-2.409,1.13
		c-0.821,0.75-1.498,1.686-2.032,2.808c-0.537,1.119-0.804,2.178-0.804,3.179c0,0.652,0.16,1.161,0.478,1.526
		c0.318,0.365,0.787,0.548,1.408,0.548c1.169,0,2.111-0.795,2.825-2.389c-0.098,0.408-0.149,0.742-0.149,1.006
		c0,0.346,0.079,0.63,0.23,0.854c0.242,0.351,0.658,0.528,1.245,0.528c0.461,0,0.891-0.132,1.293-0.396
		C49.09,28.25,49.399,27.8,49.621,27.171z M47.479,21.479l-0.734,2.628l0.084-0.413c-0.233,0.885-0.495,1.653-0.793,2.302
		c-0.295,0.652-0.596,1.147-0.897,1.487c-0.304,0.34-0.573,0.512-0.815,0.512c-0.166,0-0.284-0.081-0.36-0.245
		c-0.073-0.16-0.11-0.427-0.11-0.801c0-0.967,0.172-1.968,0.514-2.999c0.343-1.031,0.759-1.892,1.248-2.58
		c0.489-0.689,0.925-1.034,1.31-1.034c0.18,0,0.32,0.076,0.419,0.222c0.098,0.149,0.149,0.36,0.149,0.635
		C47.496,21.319,47.491,21.414,47.479,21.479z"/>
	<path style="fill:#302E2C;" d="M41.157,19.716c-0.646,0.138-1.467,0.216-2.462,0.231l-0.081,0.323l-3.252,5.377l-0.545-5.931
		c-0.559,0.138-1.307,0.216-2.24,0.231l0.017,0.166c-0.202,1.417-0.402,2.631-0.596,3.643c-0.197,1.015-0.464,1.968-0.804,2.861
		c-0.34,0.897-0.756,1.495-1.251,1.796c-0.194,0.121-0.41,0.191-0.652,0.205c-0.093,0-0.149-0.011-0.171-0.031
		c0.312-0.172,0.571-0.388,0.773-0.655c0.205-0.267,0.306-0.551,0.306-0.852c0-0.275-0.093-0.497-0.278-0.669
		c-0.183-0.169-0.438-0.256-0.767-0.256c-0.259,0-0.497,0.059-0.714,0.177c-0.205,0.112-0.366,0.272-0.49,0.472l0.307-0.871h-0.32
		l-0.298,0.815c-0.197,0.506-0.379,0.854-0.551,1.043c-0.169,0.188-0.34,0.284-0.512,0.284c-0.225,0-0.337-0.118-0.337-0.354
		c0-0.127,0.034-0.29,0.098-0.486l1.771-5.163c0.126-0.351,0.191-0.683,0.191-0.995c0-0.408-0.118-0.734-0.354-0.984
		c-0.236-0.25-0.616-0.377-1.138-0.377c-1.152,0-1.931,0.576-2.339,1.731l-0.475,1.285h0.32l0.337-0.857
		c0.174-0.478,0.349-0.821,0.517-1.026c0.171-0.205,0.357-0.309,0.562-0.309c0.197,0,0.295,0.11,0.295,0.332
		c0,0.141-0.036,0.312-0.107,0.509l-1.656,4.843c-0.163,0.483-0.247,0.913-0.247,1.293c0,0.928,0.512,1.391,1.532,1.391
		c1.086,0,1.822-0.555,2.228-1.641c-0.02,0.104-0.038,0.209-0.038,0.323c0,0.385,0.118,0.7,0.357,0.947
		c0.239,0.247,0.593,0.371,1.06,0.371c0.357,0,0.672-0.079,0.944-0.239c0.655-0.402,1.183-1.242,1.591-2.524
		c0.405-1.282,0.753-2.904,1.037-4.863l0.815,7.468h0.32l4.455-7.395l-1.391,5.189c-0.115,0.472-0.171,0.835-0.171,1.088
		c0,0.278,0.056,0.512,0.171,0.7c0.104,0.174,0.27,0.315,0.495,0.419c0.225,0.104,0.495,0.157,0.807,0.157
		c0.5,0,0.947-0.138,1.344-0.413c0.393-0.273,0.7-0.714,0.913-1.324l0.461-1.284h-0.32L40.3,26.749
		c-0.169,0.483-0.34,0.826-0.514,1.026c-0.171,0.2-0.36,0.301-0.562,0.301c-0.194,0-0.29-0.101-0.29-0.304
		c0-0.104,0.034-0.284,0.098-0.537L41.157,19.716z"/>
	<path style="fill:#302E2C;" d="M27.769,18.227c0.323,0,0.618-0.065,0.885-0.197c0.267-0.132,0.478-0.315,0.635-0.551
		c0.155-0.236,0.233-0.503,0.233-0.801c0-0.329-0.107-0.585-0.323-0.77c-0.219-0.183-0.526-0.275-0.928-0.275
		c-0.323,0-0.616,0.065-0.877,0.191c-0.261,0.126-0.467,0.309-0.618,0.545c-0.149,0.239-0.225,0.526-0.225,0.863
		c0,0.306,0.107,0.548,0.32,0.728C27.086,18.137,27.387,18.227,27.769,18.227z"/>
	<path style="fill:#302E2C;" d="M12.55,28.331c-0.298-0.011-0.526-0.034-0.683-0.07c-0.16-0.037-0.278-0.096-0.351-0.18
		c-0.073-0.087-0.11-0.211-0.11-0.377c0-0.163,0.048-0.438,0.146-0.824l2.223-8.365c0.11-0.424,0.225-0.731,0.343-0.922
		c0.118-0.194,0.275-0.326,0.478-0.396c0.2-0.07,0.506-0.115,0.916-0.132l0.084-0.337c-0.604,0.034-1.529,0.051-2.777,0.051
		c-0.245,0-0.725-0.008-1.436-0.025c-0.711-0.017-1.383-0.025-2.021-0.025c-0.686,0-1.383,0.008-2.088,0.025
		c-0.706,0.017-1.178,0.025-1.419,0.025c-1.268,0-2.184-0.017-2.752-0.051l-0.081,0.337c0.292,0.011,0.514,0.034,0.672,0.07
		c0.157,0.036,0.273,0.098,0.346,0.185c0.073,0.087,0.11,0.214,0.11,0.379c0,0.185-0.045,0.458-0.138,0.815l-2.223,8.365
		C1.678,27.3,1.563,27.606,1.442,27.8c-0.121,0.194-0.281,0.329-0.478,0.399c-0.2,0.07-0.492,0.115-0.883,0.132L0,28.669
		c0.61-0.034,1.526-0.051,2.749-0.051c1.15,0,2.029,0.017,2.645,0.051l0.073-0.337c-0.295-0.011-0.523-0.034-0.683-0.07
		c-0.16-0.037-0.275-0.096-0.349-0.18c-0.076-0.087-0.112-0.211-0.112-0.377c0-0.163,0.051-0.438,0.149-0.824l2.223-8.365
		c0.11-0.424,0.222-0.734,0.34-0.93c0.118-0.2,0.278-0.334,0.478-0.408c0.202-0.076,0.497-0.112,0.885-0.112h1.706
		c0.422,0,0.72,0.042,0.888,0.127c0.171,0.087,0.256,0.256,0.256,0.509c0,0.197-0.051,0.469-0.149,0.815l-2.232,8.365
		c-0.11,0.424-0.222,0.731-0.34,0.922c-0.118,0.194-0.278,0.326-0.483,0.396c-0.202,0.07-0.506,0.115-0.913,0.132l-0.065,0.337
		c0.624-0.034,1.509-0.051,2.651-0.051c1.251,0,2.173,0.017,2.766,0.051L12.55,28.331z"/>
	<path style="fill:#302E2C;" d="M114.002,20.88c0.973,0.03,1.125,0,1.125,0l0.426-0.149c0.147-0.042,0.304-1.222,0.335-1.49
		c0.03-0.268,0.061-0.417-0.243-0.834c-0.304-0.417-3.254-3.516-4.136-4.082c-0.882-0.566-0.304-1.699,0.091-2.294
		c0.395-0.596,0.699-2.443,0.699-2.443s0.335-0.537,0.274-0.983c-0.418-3.074-1.805-3.478,3.663-4.71
		c0.469-0.106,0.79-0.141,2.235-0.987c2.378-1.392,1.33-1.419,3.49-1.097c0.488,0.073,0.914,0.433,0.914,0.433
		s0.564,0.544,0.719,0.421c0.156-0.123-0.022-0.242-0.022-0.242s0.3,0.208,0.447,0.117c0.147-0.091,0.284-0.15,0.089-0.405
		c-0.195-0.255-0.341-0.607-0.341-0.607L124.5,1.78c0,0,0.197-0.159-0.025-0.36l-0.003-0.003c-0.027-0.024-0.06-0.049-0.1-0.074
		c-0.377-0.236-1.342-0.836-1.954-0.797c-2.241,0.141-1.977,0.164-4.248,1.005c0,0-1.391,0.411-1.877,0.823
		s-1.881,0.739-1.881,0.739c-1.599,0.476-3.376,0.692-4.439,1.917l-0.335,0.03c0,0-0.441-1.013-0.289-1.609
		c0.152-0.596,0.912-1.216,0.776-1.38c-0.137-0.164-0.517-0.561-0.517-0.561h-0.198l0.076-0.259l-0.228-0.04
		c0,0,0.122-0.646-0.152-0.571c-0.274,0.075-0.76,0.042-0.867-0.092c-0.106-0.134-0.943-0.671-1.399-0.522
		c-0.456,0.149-1.825,0.729-1.734,1.653c-0.547,0.283-1.049,0.729-0.867,1.266c0.182,0.537,0.547,1.773,1.749,1.043
		c0.471,0.387,1.11,0.417,1.11,0.417s0.198,1.147-0.456,1.162c-0.654,0.015-1.308,0.09-1.703,0.313
		c-0.016,0.009-0.034,0.019-0.054,0.028c-0.518,0.104-2.125,0.14-3.101-0.211c-1.017-0.365-1.368-0.521-2.489-0.743
		c-1.448-0.288-2.781-0.971-4.14,0.035c-0.536,0.397-0.795,0.59-0.795,0.59l-0.722,0.61c0,0-0.208,0.237,0.045,0.29
		c0.253,0.052,0.339-0.141,0.339-0.141l-0.179,0.585c0,0-0.049,0.234,0.223,0.106c0.08,0.052,0.357,0.358,0.445,0.042
		c0.088-0.316,0.089-0.996,0.183-1.109c0.095-0.114,0.523-0.292,0.64-0.261c0.117,0.032,0.232,0.186,0.1,0.32
		c-0.132,0.135-0.212,0.252-0.255,0.518c-0.043,0.266,0.207,0.333,0.207,0.333l0.323-0.423c0,0,0.041-0.205,0.298-0.275
		c1.778-0.491-0.168-1.37,3.68,0.429c0,0,0.923,0.479,1.711,0.535c0.747,0.053,3.623,0.365,4.151,0.549
		c0.031,0.002,0.056,0.005,0.075,0.009c1.471,0.3,2.493,4.544,1.11,4.737c-0.532,0.075-3.178-0.223-4.304-0.163
		c-0.731,0.039-0.997-0.182-1.141,0.298l-0.121,0.03c-0.517,0.223-0.77,0.127-0.837,0.536l-0.038,0.149
		c-0.025,1.017,0.183,1.731,0.597,2.354l-0.044,0.253c0,0,0.016,0.119,0.199,0.119c0.182,0,0.259,0.119,0.259,0.119l-0.091,0.223
		l0.487,0.134c0,0-0.152,0.447-0.015,0.521c0.137,0.075,0.395,0.104,0.395,0.104l0.031,0.283c0,0-0.061,0.179,0.122,0.179
		c0.182,0,0.639,0.104,0.654,0.223c0.076,0.599,1.496,0.996,2.038,0.968l0.274-0.104l0.258,0.359c0,0,0.006,0.03,0.018,0.084
		c0.306,1.452,1.641,4.739,0.518,6.06c-0.228,0.268-0.321,1.65-0.002,2.633c0.319,0.983,0.562,2.59,0.318,3.394
		c-0.243,0.805-1.004,1.34-0.67,1.727c0.335,0.387,1.186,1.102,1.156,1.608c-0.031,0.507,0.03,1.847,0.547,1.877
		c0.517,0.03,0.547,0.268,0.669-0.804c0.122-1.073,0.213-1.609,0.183-2.622c-0.03-1.013-0.415-2.205-0.415-2.205
		s0.84,1.549,0.932,2.116c0.091,0.566-0.091,1.49,0,1.906c0.091,0.417-0.091,1.606,0.578,1.652c0.669,0.046,1.034,0.285,1.125-0.698
		c0.091-0.983-0.031-2.443-0.426-3.486c-0.395-1.042-0.912-1.698-0.821-2.591c0.091-0.894,0-3.218-0.426-3.933
		c-0.426-1.192,0.608-3.843,0.608-3.843c1.628-2.915,0.841-0.697,2.038-0.864c0.213-0.03,0.73-0.149,0.73-0.149l0.334,0.06
		l0.243-0.03C113.889,20.683,113.225,20.856,114.002,20.88z"/>
	<path style="fill:#302E2C;" d="M134.149,0.041c-4.271-0.396-5.363,2.177-9.018,2.926c3.482,0.437,11.257-4.553,13.298,3.984
		c1.104,4.62-4.701,8.931-3.563,13.457c0.88,5.376,1.696,7.343-0.137,12.289c-0.532,1.435-2.405,3.393-3.723,1.511
		c-2.901-3.299-3.393-14.622-10.993-11.432c-3.509,1.473-6.946,10.242-7.235,14.377c1.241-1.133,5.302-11.809,8.747-12.313
		c5.606-0.821,3.92,12.67,10.732,12.242c2.032-0.128,3.202-1.648,3.688-3.288c2.662-8.977-0.518-11.654,0.432-15.738
		c0.414-1.782,2.276-3.053,3.569-5.74C142.227,7.593,140.774,0.657,134.149,0.041z"/>
	<path style="fill:#302E2C;" d="M167.995,21.592c0.143-0.398,0.216-0.773,0.216-1.126c0-0.461-0.134-0.83-0.401-1.113
		c-0.267-0.283-0.696-0.426-1.288-0.426c-1.304,0-2.184,0.652-2.646,1.959l-0.537,1.453h0.362l0.382-0.97
		c0.197-0.541,0.394-0.929,0.585-1.161c0.194-0.232,0.404-0.35,0.636-0.35c0.223,0,0.334,0.124,0.334,0.375
		c0,0.159-0.041,0.353-0.121,0.576l-1.873,5.479c-0.184,0.547-0.28,1.033-0.28,1.463c0,1.049,0.579,1.574,1.733,1.574
		c1.269,0,2.124-0.655,2.572-1.965l0.493-1.399h-0.362l-0.337,0.922c-0.223,0.572-0.429,0.967-0.623,1.18
		c-0.191,0.213-0.385,0.321-0.579,0.321c-0.254,0-0.382-0.134-0.382-0.401c0-0.143,0.038-0.327,0.111-0.55L167.995,21.592z"/>
	<path style="fill:#302E2C;" d="M217.91,19.315c-0.366-0.258-0.846-0.388-1.434-0.388c-1.256,0-2.41,0.401-3.466,1.199
		c-1.056,0.798-1.889,1.8-2.502,3.005c-0.611,1.205-0.916,2.372-0.916,3.501c0,0.572,0.127,1.062,0.385,1.469
		c0.258,0.407,0.614,0.712,1.068,0.916c0.451,0.207,0.967,0.308,1.545,0.308c0.646,0,1.253-0.121,1.822-0.359
		c0.566-0.238,1.072-0.553,1.507-0.941c0.439-0.388,0.804-0.808,1.097-1.262l-0.308-0.15c-0.461,0.541-0.941,0.938-1.44,1.189
		c-0.499,0.251-0.948,0.378-1.345,0.378c-0.477,0-0.843-0.143-1.094-0.426c-0.251-0.283-0.378-0.757-0.378-1.428
		c0-0.41,0.038-0.846,0.111-1.307c0.97-0.254,1.898-0.598,2.792-1.027c0.89-0.432,1.631-0.954,2.219-1.561
		c0.591-0.607,0.887-1.275,0.887-2.003C218.46,19.944,218.275,19.572,217.91,19.315z M215.926,21.817
		c-0.292,0.588-0.693,1.113-1.202,1.574c-0.509,0.458-1.208,0.884-2.095,1.275c0.178-0.881,0.467-1.739,0.865-2.569
		c0.397-0.833,0.83-1.51,1.294-2.032c0.467-0.521,0.89-0.782,1.269-0.782c0.105,0,0.181,0.045,0.232,0.14
		c0.051,0.092,0.073,0.258,0.073,0.493C216.361,20.593,216.218,21.226,215.926,21.817z"/>
	<path style="fill:#302E2C;" d="M228.143,26.883c-0.21,0.579-0.413,0.973-0.604,1.183c-0.194,0.213-0.394,0.318-0.598,0.318
		c-0.242,0-0.362-0.13-0.362-0.391c0-0.169,0.035-0.353,0.111-0.56l1.873-5.625c0.169-0.515,0.251-0.967,0.251-1.351
		c0-1.018-0.576-1.529-1.723-1.529c-0.604,0-1.148,0.146-1.634,0.439c-0.49,0.293-0.97,0.801-1.45,1.523
		c-0.477,0.725-0.976,1.733-1.501,3.024l0.598-2.321c0.105-0.41,0.159-0.776,0.159-1.097c0-1.046-0.547-1.568-1.641-1.568
		c-0.582,0-1.081,0.153-1.491,0.458c-0.407,0.305-0.734,0.805-0.976,1.501l-0.512,1.453h0.362l0.362-0.97
		c0.207-0.56,0.401-0.951,0.588-1.173c0.184-0.223,0.397-0.337,0.633-0.337c0.216,0,0.324,0.115,0.324,0.347
		c0,0.137-0.035,0.337-0.111,0.604l-2.308,8.245h2.693l0.251-0.989c0.404-1.396,0.878-2.725,1.424-3.984
		c0.547-1.262,1.091-2.277,1.631-3.046c0.537-0.773,0.998-1.157,1.377-1.157c0.248,0,0.372,0.146,0.372,0.439
		c0,0.181-0.057,0.455-0.175,0.82l-1.714,5.151c-0.207,0.626-0.308,1.132-0.308,1.517c0,0.343,0.079,0.639,0.242,0.887
		c0.305,0.423,0.814,0.633,1.529,0.633c1.246,0,2.102-0.655,2.56-1.965l0.477-1.399h-0.366L228.143,26.883z"/>
	<path style="fill:#302E2C;" d="M234.783,19.626h2.207l0.054-0.382h-2.15l0.913-3.167c-0.747,0.162-1.669,0.251-2.766,0.27
		l-0.83,2.897h-1.742l-0.102,0.382h1.733l-1.921,6.661c-0.118,0.436-0.175,0.817-0.175,1.145c0,0.585,0.162,1.046,0.486,1.383
		c0.328,0.34,0.814,0.509,1.459,0.509c1.402,0,2.359-0.75,2.868-2.254l0.382-1.11h-0.363l-0.289,0.782
		c-0.203,0.547-0.436,0.957-0.7,1.231c-0.261,0.273-0.528,0.41-0.808,0.41c-0.378,0-0.569-0.191-0.569-0.569
		c0-0.118,0.019-0.245,0.054-0.382L234.783,19.626z"/>
	<path style="fill:#302E2C;" d="M208.055,16.701c-0.986-0.769-2.41-1.154-4.273-1.154c-0.572,0-1.52,0.019-2.843,0.057l-0.604,0.006
		c-0.782,0-1.625-0.019-2.525-0.064l-0.057,0.382c0.461,0.019,0.782,0.092,0.97,0.219c0.184,0.127,0.28,0.324,0.28,0.591
		c0,0.156-0.051,0.432-0.149,0.83l-2.496,9.463c-0.124,0.474-0.254,0.82-0.391,1.04s-0.318,0.372-0.537,0.451
		c-0.219,0.08-0.547,0.13-0.982,0.149l-0.054,0.382c0.668-0.038,1.622-0.057,2.859-0.057c0.496,0,1.03,0.01,1.602,0.029
		c0.569,0.019,0.998,0.029,1.285,0.029c2.006,0,3.72-0.439,5.138-1.32c1.418-0.878,2.483-2.003,3.196-3.38
		c0.709-1.377,1.065-2.792,1.065-4.251C209.537,18.606,209.044,17.471,208.055,16.701z M205.705,23.881
		c-0.502,1.418-1.231,2.579-2.191,3.479c-0.96,0.9-2.086,1.351-3.377,1.351c-0.353,0-0.601-0.048-0.744-0.137
		c-0.143-0.089-0.216-0.242-0.216-0.451c0-0.162,0.073-0.512,0.216-1.052l2.496-9.539c0.13-0.502,0.245-0.862,0.343-1.075
		c0.102-0.216,0.232-0.362,0.391-0.445c0.162-0.079,0.407-0.121,0.738-0.121c1.075,0,1.857,0.302,2.353,0.906
		c0.493,0.601,0.738,1.501,0.738,2.7C206.452,21,206.204,22.46,205.705,23.881z"/>
	<path style="fill:#302E2C;" d="M163.685,20.466c0-0.455-0.137-0.823-0.41-1.11c-0.27-0.286-0.652-0.429-1.135-0.429
		c-0.464,0-0.878,0.105-1.24,0.315c-0.359,0.207-0.7,0.553-1.018,1.037c-0.321,0.486-0.642,1.145-0.967,1.975l0.169-0.661
		c0.099-0.398,0.149-0.773,0.149-1.126c0-1.024-0.487-1.539-1.463-1.539c-1.285,0-2.165,0.652-2.636,1.959l-0.512,1.453h0.363
		l0.362-0.97c0.207-0.553,0.404-0.941,0.598-1.17c0.191-0.226,0.407-0.34,0.642-0.34c0.21,0,0.318,0.124,0.318,0.375
		c0,0.13-0.035,0.321-0.105,0.576l-2.328,8.245h2.684l0.792-3.084c0.712-2.49,1.409-4.216,2.079-5.18
		c0.674-0.96,1.348-1.444,2.019-1.444c0.013,0,0.092,0.019,0.242,0.057c-0.292,0.067-0.56,0.194-0.801,0.381
		c-0.242,0.188-0.432,0.413-0.572,0.68s-0.21,0.55-0.21,0.846c0,0.369,0.102,0.649,0.302,0.846c0.203,0.194,0.49,0.293,0.862,0.293
		c0.337,0,0.642-0.089,0.922-0.27c0.28-0.181,0.499-0.423,0.658-0.728C163.606,21.15,163.685,20.819,163.685,20.466z"/>
	<path style="fill:#302E2C;" d="M194.207,25.96l-0.347,0.922c-0.34,1.002-0.734,1.501-1.183,1.501c-0.242,0-0.362-0.143-0.362-0.429
		c0-0.13,0.032-0.302,0.092-0.521l2.506-8.506c-0.83,0.169-1.752,0.261-2.766,0.28l-0.261,0.941
		c-0.041-0.41-0.169-0.715-0.382-0.916c-0.21-0.203-0.487-0.305-0.83-0.305c-0.887,0-1.797,0.426-2.725,1.278
		c-0.928,0.849-1.695,1.908-2.299,3.177c-0.607,1.265-0.909,2.464-0.909,3.596c0,0.738,0.181,1.313,0.541,1.727
		c0.359,0.413,0.89,0.62,1.593,0.62c1.323,0,2.388-0.9,3.196-2.703c-0.111,0.461-0.169,0.839-0.169,1.138
		c0,0.391,0.089,0.712,0.261,0.967c0.273,0.397,0.744,0.598,1.409,0.598c0.521,0,1.008-0.149,1.463-0.448
		c0.452-0.296,0.801-0.804,1.052-1.517l0.483-1.399H194.207z M191.663,20.921l-0.83,2.973l0.095-0.467
		c-0.264,1.002-0.56,1.87-0.897,2.604c-0.334,0.738-0.674,1.297-1.014,1.682c-0.343,0.385-0.649,0.579-0.922,0.579
		c-0.188,0-0.321-0.092-0.407-0.277c-0.083-0.181-0.124-0.483-0.124-0.906c0-1.094,0.194-2.226,0.582-3.393
		c0.388-1.167,0.859-2.14,1.412-2.919s1.046-1.17,1.482-1.17c0.204,0,0.363,0.086,0.474,0.251c0.111,0.168,0.169,0.407,0.169,0.719
		C191.682,20.739,191.676,20.848,191.663,20.921z"/>
	<path style="fill:#302E2C;" d="M169.333,16.396c0.175-0.267,0.264-0.569,0.264-0.906c0-0.372-0.121-0.661-0.366-0.871
		c-0.248-0.207-0.595-0.312-1.049-0.312c-0.366,0-0.696,0.073-0.992,0.216c-0.296,0.143-0.528,0.35-0.7,0.617
		c-0.169,0.27-0.254,0.595-0.254,0.976c0,0.347,0.121,0.62,0.363,0.823c0.242,0.2,0.582,0.302,1.014,0.302
		c0.366,0,0.7-0.073,1.002-0.223S169.155,16.663,169.333,16.396z"/>
	<path style="fill:#302E2C;" d="M154.133,16.297c-0.744-0.49-1.866-0.731-3.361-0.731c-0.324,0-0.795,0.006-1.412,0.019
		c-0.62,0.013-1.081,0.019-1.383,0.019c-1.374,0-2.382-0.019-3.03-0.057l-0.092,0.382c0.48,0.019,0.808,0.083,0.989,0.197
		c0.178,0.111,0.27,0.293,0.27,0.547c0,0.194-0.048,0.493-0.14,0.897l-2.515,9.463c-0.124,0.48-0.254,0.827-0.391,1.043
		c-0.137,0.219-0.321,0.369-0.547,0.448c-0.226,0.08-0.569,0.13-1.027,0.149l-0.076,0.382c0.671-0.038,1.727-0.057,3.167-0.057
		c1.192,0,2.172,0.019,2.935,0.057l0.083-0.382c-0.471-0.019-0.801-0.089-0.992-0.216c-0.188-0.124-0.283-0.318-0.283-0.585
		c0-0.162,0.051-0.442,0.149-0.839l0.903-3.399c1.539,0,2.906-0.223,4.099-0.671c1.192-0.448,2.121-1.065,2.782-1.851
		c0.661-0.785,0.992-1.673,0.992-2.668C155.252,17.499,154.877,16.784,154.133,16.297z M151.615,20.536
		c-0.302,0.792-0.789,1.44-1.463,1.952c-0.674,0.509-1.539,0.763-2.595,0.763h-0.076l1.51-5.682c0.13-0.506,0.235-0.858,0.318-1.062
		c0.08-0.207,0.184-0.353,0.315-0.442c0.13-0.092,0.328-0.137,0.588-0.137c0.646,0,1.116,0.175,1.412,0.521
		c0.292,0.35,0.442,0.868,0.442,1.555C152.066,18.902,151.913,19.744,151.615,20.536z"/>
	<path style="fill:#302E2C;" d="M183.477,26.883c-0.362,1.002-0.763,1.501-1.202,1.501c-0.242,0-0.366-0.127-0.366-0.382
		c0-0.143,0.041-0.334,0.124-0.569l1.863-5.625c0.172-0.521,0.261-0.986,0.261-1.39c0-0.992-0.521-1.491-1.558-1.491
		c-0.56,0-1.072,0.127-1.536,0.378c-0.467,0.251-0.919,0.677-1.354,1.275c-0.439,0.601-0.874,1.415-1.31,2.445l0.343-1.218
		c0.156-0.56,0.235-1.027,0.235-1.399c0-0.986-0.506-1.482-1.51-1.482c-0.614,0-1.167,0.146-1.654,0.436
		c-0.487,0.286-0.944,0.747-1.37,1.383c-0.423,0.633-0.849,1.475-1.272,2.525l0.439-1.679c0.111-0.404,0.169-0.782,0.169-1.135
		c0-1.018-0.512-1.529-1.539-1.529c-1.246,0-2.108,0.652-2.579,1.959l-0.512,1.453h0.363l0.362-0.97
		c0.2-0.534,0.394-0.919,0.582-1.154c0.191-0.239,0.397-0.356,0.62-0.356c0.232,0,0.347,0.137,0.347,0.41
		c0,0.143-0.032,0.324-0.095,0.541L169,29.054h2.684l0.502-1.956v0.045c0.417-1.396,0.855-2.636,1.323-3.717
		c0.464-1.078,0.929-1.924,1.386-2.528c0.461-0.604,0.881-0.909,1.259-0.909c0.21,0,0.318,0.121,0.318,0.366
		c0,0.159-0.057,0.42-0.169,0.782l-2.331,7.917h2.731l0.493-1.762v0.048c0.496-1.609,0.998-2.963,1.501-4.067
		c0.502-1.103,0.973-1.924,1.415-2.467c0.442-0.544,0.833-0.817,1.173-0.817c0.175,0,0.261,0.127,0.261,0.385
		c0,0.191-0.048,0.445-0.149,0.763l-1.714,5.151c-0.191,0.595-0.289,1.097-0.289,1.501c0,0.334,0.07,0.617,0.207,0.846
		c0.286,0.461,0.795,0.69,1.526,0.69c1.262,0,2.121-0.655,2.582-1.965l0.474-1.399h-0.362L183.477,26.883z"/>
</g>
</svg>
